<svg xmlns="http://www.w3.org/2000/svg" xml:space="preserve" id="sun" x="0" y="0" enable-background="new 0 0 441.6 471.3" version="1.1" viewBox="0 0 441.6 471.3">
  <g>
    <g>
      <path fill="#FFC50C" d="M220.8,70.9c-5.5,0-10-4.5-10-10V10c0-5.5,4.5-10,10-10s10,4.5,10,10v50.9
			C230.8,66.4,226.3,70.9,220.8,70.9z"></path>
    </g>
    <circle cx="220.8" cy="235.7" r="150" fill="#FFC50C"></circle>
    <g>
      <path fill="#FFC50C" d="M138.4,93c-4.8,2.8-10.9,1.1-13.7-3.7l-18-31.2c-2.8-4.8-1.1-10.9,3.7-13.7c4.8-2.8,10.9-1.1,13.7,3.7
			l18,31.2C144.8,84.1,143.2,90.2,138.4,93z"></path>
    </g>
    <g>
      <path fill="#FFC50C" d="M78.1,153.3c-2.8,4.8-8.9,6.4-13.7,3.7l-44.1-25.4c-4.8-2.8-6.4-8.9-3.7-13.7c2.8-4.8,8.9-6.4,13.7-3.7
			l44.1,25.4C79.2,142.4,80.8,148.5,78.1,153.3z"></path>
    </g>
    <g>
      <path fill="#FFC50C" d="M56,235.7c0,5.5-4.5,10-10,10H10c-5.5,0-10-4.5-10-10c0-5.5,4.5-10,10-10h36C51.5,225.7,56,230.1,56,235.7
			z"></path>
    </g>
    <g>
      <path fill="#FFC50C" d="M78.1,318.1c2.8,4.8,1.1,10.9-3.7,13.7l-44.1,25.4c-4.8,2.8-10.9,1.1-13.7-3.7s-1.1-10.9,3.7-13.7
			l44.1-25.4C69.2,311.6,75.3,313.3,78.1,318.1z"></path>
    </g>
    <g>
      <path fill="#FFC50C" d="M138.4,378.4c4.8,2.8,6.4,8.9,3.7,13.7l-18,31.2c-2.8,4.8-8.9,6.4-13.7,3.7c-4.8-2.8-6.4-8.9-3.7-13.7
			l18-31.2C127.5,377.2,133.6,375.6,138.4,378.4z"></path>
    </g>
    <g>
      <path fill="#FFC50C" d="M220.8,400.4c5.5,0,10,4.5,10,10v50.9c0,5.5-4.5,10-10,10s-10-4.5-10-10v-50.9
			C210.8,404.9,215.3,400.4,220.8,400.4z"></path>
    </g>
    <g>
      <path fill="#FFC50C" d="M303.2,378.4c4.8-2.8,10.9-1.1,13.7,3.7l18,31.2c2.8,4.8,1.1,10.9-3.7,13.7s-10.9,1.1-13.7-3.7l-18-31.2
			C296.7,387.2,298.4,381.1,303.2,378.4z"></path>
    </g>
    <g>
      <path fill="#FFC50C" d="M363.5,318.1c2.8-4.8,8.9-6.4,13.7-3.7l44.1,25.4c4.8,2.8,6.4,8.9,3.7,13.7s-8.9,6.4-13.7,3.7l-44.1-25.4
			C362.4,329,360.7,322.8,363.5,318.1z"></path>
    </g>
    <g>
      <path fill="#FFC50C" d="M385.6,235.7c0-5.5,4.5-10,10-10h36c5.5,0,10,4.5,10,10s-4.5,10-10,10h-36
			C390,245.7,385.6,241.2,385.6,235.7z"></path>
    </g>
    <g>
      <path fill="#FFC50C" d="M363.5,153.3c-2.8-4.8-1.1-10.9,3.7-13.7l44.1-25.4c4.8-2.8,10.9-1.1,13.7,3.7s1.1,10.9-3.7,13.7
			l-44.1,25.4C372.4,159.7,366.2,158.1,363.5,153.3z"></path>
    </g>
    <g>
      <path fill="#FFC50C" d="M303.2,93c-4.8-2.8-6.4-8.9-3.7-13.7l18-31.2c2.8-4.8,8.9-6.4,13.7-3.7s6.4,8.9,3.7,13.7l-18,31.2
			C314.1,94.1,307.9,95.7,303.2,93z"></path>
    </g>
  </g>
</svg>
